<svg width="36" height="39" viewBox="0 0 36 39" fill="none" xmlns="http://www.w3.org/2000/svg">
<path fill-rule="evenodd" clip-rule="evenodd" d="M30.6165 5.11765C32.0297 5.11765 33.1753 3.97202 33.1753 2.55882C33.1753 1.14562 32.0297 0 30.6165 0C29.2033 0 28.0577 1.14562 28.0577 2.55882C28.0577 2.56916 28.0577 2.57948 28.0579 2.58979C27.1795 1.34351 25.729 0.529391 24.0884 0.529391C21.4082 0.529391 19.2355 2.70213 19.2355 5.38233C19.2355 8.06254 21.4082 10.2353 24.0884 10.2353C24.6381 10.2353 25.1665 10.1439 25.6591 9.97544C24.7666 10.9105 24.1731 12.1336 24.0322 13.4912C21.4826 11.2449 18.1357 9.88235 14.4706 9.88235C6.4787 9.88235 0 16.3611 0 24.3529C0 32.3448 6.4787 38.8235 14.4706 38.8235C22.4625 38.8235 28.9412 32.3448 28.9412 24.3529C28.9412 22.7813 28.6906 21.2683 28.2273 19.8515C28.7876 20.0245 29.3829 20.1176 29.9999 20.1176C33.3136 20.1176 35.9999 17.4313 35.9999 14.1176C35.9999 10.8039 33.3136 8.11762 29.9999 8.11762C29.2112 8.11762 28.458 8.26982 27.7681 8.54644C28.4993 7.69684 28.9413 6.5912 28.9413 5.38233C28.9413 5.04678 28.9073 4.71919 28.8424 4.40281C29.3024 4.84548 29.9277 5.11765 30.6165 5.11765Z" fill="#D4C9FF"/>
</svg>
