<svg width="30" height="28" viewBox="0 0 30 28" fill="none" xmlns="http://www.w3.org/2000/svg">
<path d="M11.5681 24C11.5681 26.2091 9.77721 28 7.56807 28H7.10798C4.89884 28 3.10798 26.2091 3.10798 24V15.7573C3.10798 14.9739 2.47291 14.3388 1.68951 14.3388V14.3388C0.390387 14.3388 -0.225257 12.7375 0.739279 11.8672L12.3204 1.41777C13.8428 0.0441693 16.1572 0.0441682 17.6796 1.41777L29.2607 11.8672C30.2253 12.7375 29.6096 14.3388 28.3105 14.3388V14.3388C27.5271 14.3388 26.892 14.9739 26.892 15.7573V24C26.892 26.2091 25.1012 28 22.892 28H22.4319C20.2228 28 18.4319 26.2091 18.4319 24V21.206C18.4319 19.3106 16.8954 17.7741 15 17.7741V17.7741C13.1046 17.7741 11.5681 19.3106 11.5681 21.206V24Z" fill="#9378FF" fill-opacity="0.4"/>
</svg>
